<svg xmlns="http://www.w3.org/2000/svg" width="135" height="134.919" viewBox="0 0 135 134.919">
  <g id="Group_16" data-name="Group 16" transform="translate(-627 -797)">
    <path id="Path_27" data-name="Path 27" d="M85.984,141.719a55.746,55.746,0,0,1,55.752-55.752,55.184,55.184,0,0,1,26.037,6.462l8.6-8.6a67.466,67.466,0,0,0-92.551,92.524l8.6-8.6a55.484,55.484,0,0,1-6.435-26.037" transform="translate(552.75 722.74)" fill="#f39000"/>
    <path id="Path_28" data-name="Path 28" d="M178.944,86.41l-8.6,8.6a55.759,55.759,0,0,1-75.327,75.327l-8.6,8.6A67.458,67.458,0,0,0,178.944,86.41" transform="translate(573.485 743.441)" fill="#f39000"/>
    <path id="Icon_metro-credit-card" data-name="Icon metro-credit-card" d="M55.133,5.784H8.008a5.453,5.453,0,0,0-5.438,5.437V43.847a5.453,5.453,0,0,0,5.438,5.438H55.133a5.453,5.453,0,0,0,5.438-5.437V11.222a5.453,5.453,0,0,0-5.437-5.438ZM8.008,9.409H55.133a1.837,1.837,0,0,1,1.813,1.813v5.438H6.2V11.222A1.837,1.837,0,0,1,8.008,9.409Zm47.125,36.25H8.008A1.837,1.837,0,0,1,6.2,43.847V27.534h50.75V43.847a1.837,1.837,0,0,1-1.812,1.812ZM9.821,34.784h3.625v7.25H9.821Zm7.25,0H20.7v7.25H17.071Zm7.25,0h3.625v7.25H24.321Z" transform="translate(663.429 837.216)" fill="#3c3c3b"/>
  </g>
</svg>
