<svg xmlns="http://www.w3.org/2000/svg" width="135" height="134.919" viewBox="0 0 135 134.919">
  <g id="Group_23" data-name="Group 23" transform="translate(-1419 -578)">
    <path id="Path_74" data-name="Path 74" d="M85.984,141.719a55.746,55.746,0,0,1,55.752-55.752,55.184,55.184,0,0,1,26.037,6.462l8.6-8.6a67.466,67.466,0,0,0-92.551,92.524l8.6-8.6a55.484,55.484,0,0,1-6.435-26.037" transform="translate(1344.75 503.74)" fill="#f39000"/>
    <path id="Path_75" data-name="Path 75" d="M178.944,86.41l-8.6,8.6a55.759,55.759,0,0,1-75.327,75.327l-8.6,8.6A67.458,67.458,0,0,0,178.944,86.41" transform="translate(1365.485 524.441)" fill="#f39000"/>
    <path id="hand-stop-o-0c0c90d7deeeaae47f7395d163b44dc6" d="M28.482,4.143a3.489,3.489,0,0,0-2.557,1.068,3.489,3.489,0,0,0-1.068,2.557V29H23.821V11.911A3.616,3.616,0,0,0,17.64,9.354a3.489,3.489,0,0,0-1.068,2.557V37.286l-4.984-6.635A3.908,3.908,0,0,0,8.286,29a3.991,3.991,0,0,0-2.929,1.214,4.128,4.128,0,0,0-.372,5.421L17.413,52.206a3.908,3.908,0,0,0,3.3,1.651H42.982a3.167,3.167,0,0,0,3.075-2.525l2.46-13.108a12.435,12.435,0,0,0,.162-1.91V20.2a3.625,3.625,0,0,0-7.25,0V29H40.393V11.911a3.625,3.625,0,0,0-7.25,0V29H32.107V7.768a3.489,3.489,0,0,0-1.068-2.557,3.489,3.489,0,0,0-2.557-1.068Zm0-4.143a7.586,7.586,0,0,1,4.062,1.149,7.7,7.7,0,0,1,2.864,3.123,6.611,6.611,0,0,1,1.359-.129,7.48,7.48,0,0,1,5.486,2.282,7.48,7.48,0,0,1,2.282,5.486v.55a7.613,7.613,0,0,1,5.842,2.071A7.4,7.4,0,0,1,52.821,20.2V36.315A14.684,14.684,0,0,1,52.563,39L50.1,52.077a6.935,6.935,0,0,1-2.476,4.24A7.054,7.054,0,0,1,42.982,58H20.714a8.121,8.121,0,0,1-3.706-.89A8.4,8.4,0,0,1,14.079,54.7L1.651,38.127A8.1,8.1,0,0,1,0,33.143a7.983,7.983,0,0,1,2.427-5.858,7.983,7.983,0,0,1,5.858-2.427,7.217,7.217,0,0,1,4.143,1.1V11.911A7.48,7.48,0,0,1,14.71,6.425,7.48,7.48,0,0,1,20.2,4.143a6.611,6.611,0,0,1,1.359.129A7.7,7.7,0,0,1,24.42,1.149,7.586,7.586,0,0,1,28.482,0Z" transform="translate(1457 617)" fill="#3c3c3b"/>
  </g>
</svg>
