<svg xmlns="http://www.w3.org/2000/svg" width="135" height="134.919" viewBox="0 0 135 134.919">
  <g id="Group_19" data-name="Group 19" transform="translate(-1220 -788)">
    <path id="Path_68" data-name="Path 68" d="M85.984,141.719a55.746,55.746,0,0,1,55.752-55.752,55.184,55.184,0,0,1,26.037,6.462l8.6-8.6a67.466,67.466,0,0,0-92.551,92.524l8.6-8.6a55.484,55.484,0,0,1-6.435-26.037" transform="translate(1145.75 713.74)" fill="#f39000"/>
    <path id="Path_69" data-name="Path 69" d="M178.944,86.41l-8.6,8.6a55.759,55.759,0,0,1-75.327,75.327l-8.6,8.6A67.458,67.458,0,0,0,178.944,86.41" transform="translate(1166.485 734.441)" fill="#f39000"/>
    <path id="Icon_awesome-user" data-name="Icon awesome-user" d="M21.875,25a12.5,12.5,0,1,0-12.5-12.5A12.5,12.5,0,0,0,21.875,25Zm8.75,3.125H28.994a17,17,0,0,1-14.238,0H13.125A13.128,13.128,0,0,0,0,41.25v4.062A4.689,4.689,0,0,0,4.688,50H39.063a4.689,4.689,0,0,0,4.688-4.687V41.25A13.128,13.128,0,0,0,30.625,28.125Z" transform="translate(1265.484 830.047)" fill="#3c3c3b"/>
  </g>
</svg>
