<svg xmlns="http://www.w3.org/2000/svg" width="48" height="48" viewBox="0 0 48 48">
  <g id="Group_4" data-name="Group 4" transform="translate(-114 -516)" fill="currentColor">
    <path id="Icon_awesome-youtube" data-name="Icon awesome-youtube" d="M48.047,9.781A6.031,6.031,0,0,0,43.8,5.51C40.06,4.5,25.05,4.5,25.05,4.5S10.04,4.5,6.3,5.51A6.031,6.031,0,0,0,2.053,9.781c-1,3.768-1,11.628-1,11.628s0,7.861,1,11.628A5.941,5.941,0,0,0,6.3,37.24c3.743,1.01,18.753,1.01,18.753,1.01s15.01,0,18.753-1.01a5.941,5.941,0,0,0,4.244-4.2c1-3.768,1-11.628,1-11.628s0-7.861-1-11.628ZM20.141,28.546V14.272l12.545,7.137L20.141,28.546Z" transform="translate(112.95 518.5)" />
    
  </g>
</svg>
