<svg xmlns="http://www.w3.org/2000/svg" width="135" height="134.919" viewBox="0 0 135 134.919">
  <g id="Group_21" data-name="Group 21" transform="translate(-1598 -781)">
    <path id="Path_72" data-name="Path 72" d="M85.984,141.719a55.746,55.746,0,0,1,55.752-55.752,55.184,55.184,0,0,1,26.037,6.462l8.6-8.6a67.466,67.466,0,0,0-92.551,92.524l8.6-8.6a55.484,55.484,0,0,1-6.435-26.037" transform="translate(1523.75 706.74)" fill="#f39000"/>
    <path id="Path_73" data-name="Path 73" d="M178.944,86.41l-8.6,8.6a55.759,55.759,0,0,1-75.327,75.327l-8.6,8.6A67.458,67.458,0,0,0,178.944,86.41" transform="translate(1544.485 727.441)" fill="#f39000"/>
    <path id="Icon_awesome-bell" data-name="Icon awesome-bell" d="M25.375,58a7.249,7.249,0,0,0,7.247-7.25H18.128A7.249,7.249,0,0,0,25.375,58Zm24.4-16.959c-2.189-2.352-6.284-5.889-6.284-17.478A17.889,17.889,0,0,0,29,5.986V3.625a3.623,3.623,0,1,0-7.245,0V5.986A17.889,17.889,0,0,0,7.259,23.563c0,11.589-4.1,15.126-6.284,17.478A3.539,3.539,0,0,0,0,43.5a3.628,3.628,0,0,0,3.636,3.625H47.114A3.627,3.627,0,0,0,50.75,43.5a3.537,3.537,0,0,0-.975-2.459Z" transform="translate(1641 823)" fill="#3c3c3b"/>
  </g>
</svg>
