<svg xmlns="http://www.w3.org/2000/svg" width="135" height="134.919" viewBox="0 0 135 134.919">
  <g id="Group_17" data-name="Group 17" transform="translate(-825 -797)">
    <path id="Path_61" data-name="Path 61" d="M85.984,141.719a55.746,55.746,0,0,1,55.752-55.752,55.184,55.184,0,0,1,26.037,6.462l8.6-8.6a67.466,67.466,0,0,0-92.551,92.524l8.6-8.6a55.484,55.484,0,0,1-6.435-26.037" transform="translate(750.75 722.74)" fill="#f39000"/>
    <path id="Path_62" data-name="Path 62" d="M178.944,86.41l-8.6,8.6a55.759,55.759,0,0,1-75.327,75.327l-8.6,8.6A67.458,67.458,0,0,0,178.944,86.41" transform="translate(771.485 743.441)" fill="#f39000"/>
    <g id="Icon_feather-map" data-name="Icon feather-map" transform="translate(862.5 835)">
      <path id="Path_63" data-name="Path 63" d="M1.5,13.545V55.727L19.955,45.182,41.045,55.727,59.5,45.182V3L41.045,13.545,19.955,3Z" transform="translate(0 0)" fill="none" stroke="#3c3c3b" stroke-linecap="round" stroke-linejoin="round" stroke-width="3"/>
      <path id="Path_64" data-name="Path 64" d="M12,3V45.182" transform="translate(7.955 0)" fill="none" stroke="#3c3c3b" stroke-linecap="round" stroke-linejoin="round" stroke-width="3"/>
      <path id="Path_65" data-name="Path 65" d="M24,9V51.182" transform="translate(17.045 4.545)" fill="none" stroke="#3c3c3b" stroke-linecap="round" stroke-linejoin="round" stroke-width="3"/>
    </g>
  </g>
</svg>
