<svg xmlns="http://www.w3.org/2000/svg" width="135" height="134.919" viewBox="0 0 135 134.919">
  <g id="Group_20" data-name="Group 20" transform="translate(-1399 -788)">
    <path id="Path_70" data-name="Path 70" d="M85.984,141.719a55.746,55.746,0,0,1,55.752-55.752,55.184,55.184,0,0,1,26.037,6.462l8.6-8.6a67.466,67.466,0,0,0-92.551,92.524l8.6-8.6a55.484,55.484,0,0,1-6.435-26.037" transform="translate(1324.75 713.74)" fill="#f39000"/>
    <path id="Path_71" data-name="Path 71" d="M178.944,86.41l-8.6,8.6a55.759,55.759,0,0,1-75.327,75.327l-8.6,8.6A67.458,67.458,0,0,0,178.944,86.41" transform="translate(1345.485 734.441)" fill="#f39000"/>
    <path id="Icon_awesome-chart-line" data-name="Icon awesome-chart-line" d="M56.188,40.75H7.25V6.313A1.812,1.812,0,0,0,5.438,4.5H1.813A1.812,1.812,0,0,0,0,6.313V44.375A3.625,3.625,0,0,0,3.625,48H56.188A1.812,1.812,0,0,0,58,46.188V42.563A1.812,1.812,0,0,0,56.188,40.75ZM52.563,8.125H39.189a2.719,2.719,0,0,0-1.922,4.641l3.67,3.67-8.311,8.313-8.311-8.311a3.624,3.624,0,0,0-5.126,0l-7.781,7.781a1.813,1.813,0,0,0,0,2.564l2.562,2.562a1.813,1.813,0,0,0,2.564,0l5.218-5.219,8.311,8.311a3.624,3.624,0,0,0,5.126,0L46.062,21.562l3.67,3.67a2.719,2.719,0,0,0,4.641-1.922V9.938A1.81,1.81,0,0,0,52.563,8.125Z" transform="translate(1438.81 831.885)" fill="#3c3c3b"/>
  </g>
</svg>
