<svg xmlns="http://www.w3.org/2000/svg" width="135" height="134.919" viewBox="0 0 135 134.919">
  <g id="Group_22" data-name="Group 22" transform="translate(-1221 -578)">
    <path id="Path_72" data-name="Path 72" d="M85.984,141.719a55.746,55.746,0,0,1,55.752-55.752,55.184,55.184,0,0,1,26.037,6.462l8.6-8.6a67.466,67.466,0,0,0-92.551,92.524l8.6-8.6a55.484,55.484,0,0,1-6.435-26.037" transform="translate(1146.75 503.74)" fill="#f39000"/>
    <path id="Path_73" data-name="Path 73" d="M178.944,86.41l-8.6,8.6a55.759,55.759,0,0,1-75.327,75.327l-8.6,8.6A67.458,67.458,0,0,0,178.944,86.41" transform="translate(1167.485 524.441)" fill="#f39000"/>
    <path id="Icon_awesome-archive" data-name="Icon awesome-archive" d="M3.625,49.375A3.621,3.621,0,0,0,7.25,53h43.5a3.621,3.621,0,0,0,3.625-3.625V16.75H3.625ZM21.75,25.359A1.363,1.363,0,0,1,23.109,24H34.891a1.363,1.363,0,0,1,1.359,1.359v.906a1.363,1.363,0,0,1-1.359,1.359H23.109a1.363,1.363,0,0,1-1.359-1.359ZM54.375,2.25H3.625A3.621,3.621,0,0,0,0,5.875v5.438a1.818,1.818,0,0,0,1.813,1.813H56.188A1.818,1.818,0,0,0,58,11.313V5.875A3.621,3.621,0,0,0,54.375,2.25Z" transform="translate(1259.81 617.885)" fill="#3c3c3b"/>
  </g>
</svg>
