<svg xmlns="http://www.w3.org/2000/svg" width="135" height="134.919" viewBox="0 0 135 134.919">
  <g id="Group_24" data-name="Group 24" transform="translate(-1611 -566)">
    <path id="Path_76" data-name="Path 76" d="M85.984,141.719a55.746,55.746,0,0,1,55.752-55.752,55.184,55.184,0,0,1,26.037,6.462l8.6-8.6a67.466,67.466,0,0,0-92.551,92.524l8.6-8.6a55.484,55.484,0,0,1-6.435-26.037" transform="translate(1536.75 491.74)" fill="#f39000"/>
    <path id="Path_77" data-name="Path 77" d="M178.944,86.41l-8.6,8.6a55.759,55.759,0,0,1-75.327,75.327l-8.6,8.6A67.458,67.458,0,0,0,178.944,86.41" transform="translate(1557.485 512.441)" fill="#f39000"/>
    <path id="Icon_awesome-exchange-alt" data-name="Icon awesome-exchange-alt" d="M0,16.626V14.814a2.719,2.719,0,0,1,2.719-2.719H43.5V6.657a2.721,2.721,0,0,1,4.641-1.922L57.2,13.8a2.719,2.719,0,0,1,0,3.845L48.141,26.7A2.721,2.721,0,0,1,43.5,24.782V19.345H2.719A2.719,2.719,0,0,1,0,16.626ZM55.281,33.845H14.5V28.407a2.721,2.721,0,0,0-4.641-1.922L.8,35.547a2.719,2.719,0,0,0,0,3.845l9.062,9.063A2.721,2.721,0,0,0,14.5,46.532V41.095H55.281A2.719,2.719,0,0,0,58,38.376V36.564A2.719,2.719,0,0,0,55.281,33.845Z" transform="translate(1650 608.064)" fill="#3c3c3b"/>
  </g>
</svg>
