<svg xmlns="http://www.w3.org/2000/svg" width="135" height="134.919" viewBox="0 0 135 134.919">
  <g id="Group_18" data-name="Group 18" transform="translate(-1023 -788)">
    <path id="Path_66" data-name="Path 66" d="M85.984,141.719a55.746,55.746,0,0,1,55.752-55.752,55.184,55.184,0,0,1,26.037,6.462l8.6-8.6a67.466,67.466,0,0,0-92.551,92.524l8.6-8.6a55.484,55.484,0,0,1-6.435-26.037" transform="translate(948.75 713.74)" fill="#f39000"/>
    <path id="Path_67" data-name="Path 67" d="M178.944,86.41l-8.6,8.6a55.759,55.759,0,0,1-75.327,75.327l-8.6,8.6A67.458,67.458,0,0,0,178.944,86.41" transform="translate(969.485 734.441)" fill="#f39000"/>
    <path id="Icon_awesome-users" data-name="Icon awesome-users" d="M8.7,19.65a5.8,5.8,0,1,0-5.8-5.8A5.805,5.805,0,0,0,8.7,19.65Zm40.6,0a5.8,5.8,0,1,0-5.8-5.8A5.805,5.805,0,0,0,49.3,19.65Zm2.9,2.9H46.4a5.783,5.783,0,0,0-4.087,1.686,13.256,13.256,0,0,1,6.806,9.914H55.1a2.9,2.9,0,0,0,2.9-2.9v-2.9A5.805,5.805,0,0,0,52.2,22.55Zm-23.2,0A10.15,10.15,0,1,0,18.85,12.4,10.145,10.145,0,0,0,29,22.55Zm6.96,2.9h-.752a14.014,14.014,0,0,1-12.416,0H22.04A10.443,10.443,0,0,0,11.6,35.89V38.5a4.351,4.351,0,0,0,4.35,4.35h26.1A4.351,4.351,0,0,0,46.4,38.5V35.89A10.443,10.443,0,0,0,35.96,25.45ZM15.687,24.236A5.783,5.783,0,0,0,11.6,22.55H5.8A5.805,5.805,0,0,0,0,28.35v2.9a2.9,2.9,0,0,0,2.9,2.9H8.872A13.289,13.289,0,0,1,15.687,24.236Z" transform="translate(1061.1 835.727)" fill="#3c3c3b"/>
  </g>
</svg>
